<mxfile host="app.diagrams.net" agent="Mozilla/5.0 (Macintosh; Intel Mac OS X 10_15_7) AppleWebKit/537.36 (KHTML, like Gecko) Chrome/138.0.0.0 Safari/537.36" version="28.1.0">
  <diagram name="Page-1" id="RPCTGkeRT_hVYT46oYGk">
    <mxGraphModel dx="1306" dy="870" grid="1" gridSize="10" guides="1" tooltips="1" connect="1" arrows="1" fold="1" page="1" pageScale="1" pageWidth="850" pageHeight="1100" background="#ffffff" math="0" shadow="0">
      <root>
        <mxCell id="0" />
        <mxCell id="1" parent="0" />
        <mxCell id="G_rKBuncZeWBIIrRSJT7-4" style="edgeStyle=orthogonalEdgeStyle;rounded=0;orthogonalLoop=1;jettySize=auto;html=1;exitX=0.5;exitY=1;exitDx=0;exitDy=0;labelBackgroundColor=none;fontColor=default;strokeColor=#457B9D;fontSize=13;" parent="1" source="szXa-r8fhTdHl1jieYu6-5" target="szXa-r8fhTdHl1jieYu6-6" edge="1">
          <mxGeometry relative="1" as="geometry" />
        </mxCell>
        <mxCell id="szXa-r8fhTdHl1jieYu6-5" value="Start" style="ellipse;whiteSpace=wrap;html=1;rounded=0;labelBackgroundColor=none;fillColor=#d5e8d4;strokeColor=#82b366;fontSize=13;gradientColor=#97d077;" parent="1" vertex="1">
          <mxGeometry x="330" y="25" width="120" height="40" as="geometry" />
        </mxCell>
        <mxCell id="G_rKBuncZeWBIIrRSJT7-5" style="edgeStyle=orthogonalEdgeStyle;rounded=0;orthogonalLoop=1;jettySize=auto;html=1;exitX=0.5;exitY=1;exitDx=0;exitDy=0;entryX=0.5;entryY=0;entryDx=0;entryDy=0;labelBackgroundColor=none;fontColor=default;strokeColor=#457B9D;fontSize=13;" parent="1" source="szXa-r8fhTdHl1jieYu6-6" target="szXa-r8fhTdHl1jieYu6-7" edge="1">
          <mxGeometry relative="1" as="geometry" />
        </mxCell>
        <mxCell id="szXa-r8fhTdHl1jieYu6-6" value="Check Time" style="rounded=0;whiteSpace=wrap;html=1;labelBackgroundColor=none;fillColor=#b1ddf0;strokeColor=#10739e;fontSize=13;" parent="1" vertex="1">
          <mxGeometry x="330" y="115" width="120" height="40" as="geometry" />
        </mxCell>
        <mxCell id="G_rKBuncZeWBIIrRSJT7-6" style="edgeStyle=orthogonalEdgeStyle;rounded=0;orthogonalLoop=1;jettySize=auto;html=1;exitX=0.5;exitY=1;exitDx=0;exitDy=0;entryX=0.5;entryY=0;entryDx=0;entryDy=0;labelBackgroundColor=none;fontColor=default;strokeColor=#457B9D;fontSize=13;" parent="1" source="szXa-r8fhTdHl1jieYu6-7" target="szXa-r8fhTdHl1jieYu6-8" edge="1">
          <mxGeometry relative="1" as="geometry" />
        </mxCell>
        <mxCell id="szXa-r8fhTdHl1jieYu6-7" value="Time to Feed?" style="rhombus;whiteSpace=wrap;html=1;rounded=0;labelBackgroundColor=none;fillColor=#fad7ac;strokeColor=#b46504;fontSize=13;" parent="1" vertex="1">
          <mxGeometry x="325" y="205" width="130" height="70" as="geometry" />
        </mxCell>
        <mxCell id="G_rKBuncZeWBIIrRSJT7-8" style="edgeStyle=orthogonalEdgeStyle;rounded=0;orthogonalLoop=1;jettySize=auto;html=1;exitX=0.5;exitY=1;exitDx=0;exitDy=0;labelBackgroundColor=none;fontColor=default;strokeColor=#457B9D;fontSize=13;" parent="1" source="szXa-r8fhTdHl1jieYu6-8" target="szXa-r8fhTdHl1jieYu6-10" edge="1">
          <mxGeometry relative="1" as="geometry" />
        </mxCell>
        <mxCell id="szXa-r8fhTdHl1jieYu6-8" value="Check Food Bin Level" style="rounded=0;whiteSpace=wrap;html=1;labelBackgroundColor=none;fillColor=#b1ddf0;strokeColor=#10739e;fontSize=13;" parent="1" vertex="1">
          <mxGeometry x="305" y="345" width="170" height="50" as="geometry" />
        </mxCell>
        <mxCell id="G_rKBuncZeWBIIrRSJT7-9" style="edgeStyle=orthogonalEdgeStyle;rounded=0;orthogonalLoop=1;jettySize=auto;html=1;exitX=0.5;exitY=1;exitDx=0;exitDy=0;entryX=0.5;entryY=0;entryDx=0;entryDy=0;labelBackgroundColor=none;fontColor=default;strokeColor=#457B9D;fontSize=13;" parent="1" source="szXa-r8fhTdHl1jieYu6-10" target="szXa-r8fhTdHl1jieYu6-11" edge="1">
          <mxGeometry relative="1" as="geometry" />
        </mxCell>
        <mxCell id="G_rKBuncZeWBIIrRSJT7-11" style="edgeStyle=orthogonalEdgeStyle;rounded=0;orthogonalLoop=1;jettySize=auto;html=1;exitX=1;exitY=0.5;exitDx=0;exitDy=0;entryX=0;entryY=0.5;entryDx=0;entryDy=0;labelBackgroundColor=none;fontColor=default;strokeColor=#457B9D;fontSize=13;" parent="1" source="szXa-r8fhTdHl1jieYu6-10" target="G_rKBuncZeWBIIrRSJT7-2" edge="1">
          <mxGeometry relative="1" as="geometry" />
        </mxCell>
        <mxCell id="szXa-r8fhTdHl1jieYu6-10" value="Bin Low?" style="rhombus;whiteSpace=wrap;html=1;rounded=0;labelBackgroundColor=none;fillColor=#fad7ac;strokeColor=#b46504;fontSize=13;" parent="1" vertex="1">
          <mxGeometry x="325" y="455" width="130" height="70" as="geometry" />
        </mxCell>
        <mxCell id="G_rKBuncZeWBIIrRSJT7-15" style="edgeStyle=orthogonalEdgeStyle;rounded=0;orthogonalLoop=1;jettySize=auto;html=1;exitX=0.5;exitY=1;exitDx=0;exitDy=0;entryX=0.5;entryY=0;entryDx=0;entryDy=0;labelBackgroundColor=none;fontColor=default;strokeColor=#457B9D;fontSize=13;" parent="1" source="szXa-r8fhTdHl1jieYu6-11" target="szXa-r8fhTdHl1jieYu6-12" edge="1">
          <mxGeometry relative="1" as="geometry" />
        </mxCell>
        <mxCell id="szXa-r8fhTdHl1jieYu6-11" value="Rotate Motor to Dispense Food" style="rounded=0;whiteSpace=wrap;html=1;labelBackgroundColor=none;fillColor=#b1ddf0;strokeColor=#10739e;fontSize=13;" parent="1" vertex="1">
          <mxGeometry x="295" y="595" width="190" height="50" as="geometry" />
        </mxCell>
        <mxCell id="G_rKBuncZeWBIIrRSJT7-16" style="edgeStyle=orthogonalEdgeStyle;rounded=0;orthogonalLoop=1;jettySize=auto;html=1;exitX=0.5;exitY=1;exitDx=0;exitDy=0;labelBackgroundColor=none;fontColor=default;strokeColor=#457B9D;fontSize=13;" parent="1" source="szXa-r8fhTdHl1jieYu6-12" target="szXa-r8fhTdHl1jieYu6-13" edge="1">
          <mxGeometry relative="1" as="geometry" />
        </mxCell>
        <mxCell id="szXa-r8fhTdHl1jieYu6-12" value="wait 10 Minutes" style="rounded=0;whiteSpace=wrap;html=1;labelBackgroundColor=none;fillColor=#b1ddf0;strokeColor=#10739e;fontSize=13;" parent="1" vertex="1">
          <mxGeometry x="330" y="715" width="120" height="50" as="geometry" />
        </mxCell>
        <mxCell id="G_rKBuncZeWBIIrRSJT7-17" style="edgeStyle=orthogonalEdgeStyle;rounded=0;orthogonalLoop=1;jettySize=auto;html=1;exitX=0.5;exitY=1;exitDx=0;exitDy=0;entryX=0.5;entryY=0;entryDx=0;entryDy=0;labelBackgroundColor=none;fontColor=default;strokeColor=#457B9D;fontSize=13;" parent="1" source="szXa-r8fhTdHl1jieYu6-13" target="szXa-r8fhTdHl1jieYu6-14" edge="1">
          <mxGeometry relative="1" as="geometry" />
        </mxCell>
        <mxCell id="G_rKBuncZeWBIIrRSJT7-21" style="edgeStyle=orthogonalEdgeStyle;rounded=0;orthogonalLoop=1;jettySize=auto;html=1;exitX=0;exitY=0.5;exitDx=0;exitDy=0;entryX=0;entryY=0.5;entryDx=0;entryDy=0;labelBackgroundColor=none;fontColor=default;strokeColor=#457B9D;fontSize=13;" parent="1" source="szXa-r8fhTdHl1jieYu6-13" target="szXa-r8fhTdHl1jieYu6-7" edge="1">
          <mxGeometry relative="1" as="geometry">
            <mxPoint x="230" y="235" as="targetPoint" />
            <Array as="points">
              <mxPoint x="220" y="855" />
              <mxPoint x="220" y="240" />
            </Array>
          </mxGeometry>
        </mxCell>
        <mxCell id="szXa-r8fhTdHl1jieYu6-13" value="Food Eaten?&amp;nbsp;" style="rhombus;whiteSpace=wrap;html=1;rounded=0;labelBackgroundColor=none;fillColor=#fad7ac;strokeColor=#b46504;fontSize=13;" parent="1" vertex="1">
          <mxGeometry x="325" y="825" width="130" height="60" as="geometry" />
        </mxCell>
        <mxCell id="G_rKBuncZeWBIIrRSJT7-20" value="" style="edgeStyle=orthogonalEdgeStyle;rounded=0;orthogonalLoop=1;jettySize=auto;html=1;labelBackgroundColor=none;fontColor=default;strokeColor=#457B9D;fontSize=13;" parent="1" source="szXa-r8fhTdHl1jieYu6-14" target="G_rKBuncZeWBIIrRSJT7-19" edge="1">
          <mxGeometry relative="1" as="geometry" />
        </mxCell>
        <mxCell id="szXa-r8fhTdHl1jieYu6-14" value="Log Feeding Event&amp;nbsp;" style="rounded=0;whiteSpace=wrap;html=1;labelBackgroundColor=none;fillColor=#b1ddf0;strokeColor=#10739e;fontSize=13;" parent="1" vertex="1">
          <mxGeometry x="330" y="935" width="120" height="50" as="geometry" />
        </mxCell>
        <mxCell id="G_rKBuncZeWBIIrRSJT7-23" style="edgeStyle=orthogonalEdgeStyle;rounded=0;orthogonalLoop=1;jettySize=auto;html=1;exitX=0.5;exitY=0;exitDx=0;exitDy=0;entryX=1;entryY=0.5;entryDx=0;entryDy=0;labelBackgroundColor=none;fontColor=default;strokeColor=#457B9D;fontSize=13;" parent="1" source="G_rKBuncZeWBIIrRSJT7-2" target="szXa-r8fhTdHl1jieYu6-7" edge="1">
          <mxGeometry relative="1" as="geometry" />
        </mxCell>
        <mxCell id="G_rKBuncZeWBIIrRSJT7-2" value="Send &#39;Bin Empty&#39; Alert" style="rounded=0;whiteSpace=wrap;html=1;labelBackgroundColor=none;fillColor=#fad9d5;strokeColor=#ae4132;fontSize=13;" parent="1" vertex="1">
          <mxGeometry x="540" y="460" width="140" height="60" as="geometry" />
        </mxCell>
        <mxCell id="G_rKBuncZeWBIIrRSJT7-7" value="Yes" style="text;html=1;align=center;verticalAlign=middle;resizable=0;points=[];autosize=1;strokeColor=none;fillColor=none;rounded=0;labelBackgroundColor=none;fontColor=#1D3557;fontSize=13;" parent="1" vertex="1">
          <mxGeometry x="390" y="295" width="40" height="30" as="geometry" />
        </mxCell>
        <mxCell id="G_rKBuncZeWBIIrRSJT7-10" value="Yes" style="text;html=1;align=center;verticalAlign=middle;resizable=0;points=[];autosize=1;strokeColor=none;fillColor=none;rounded=0;labelBackgroundColor=none;fontColor=#1D3557;fontSize=13;" parent="1" vertex="1">
          <mxGeometry x="390" y="545" width="40" height="30" as="geometry" />
        </mxCell>
        <mxCell id="G_rKBuncZeWBIIrRSJT7-12" value="No" style="text;html=1;align=center;verticalAlign=middle;resizable=0;points=[];autosize=1;strokeColor=none;fillColor=none;rounded=0;labelBackgroundColor=none;fontColor=#1D3557;fontSize=13;" parent="1" vertex="1">
          <mxGeometry x="470" y="460" width="40" height="30" as="geometry" />
        </mxCell>
        <mxCell id="G_rKBuncZeWBIIrRSJT7-13" style="edgeStyle=orthogonalEdgeStyle;rounded=0;orthogonalLoop=1;jettySize=auto;html=1;exitX=0.5;exitY=1;exitDx=0;exitDy=0;labelBackgroundColor=none;fontColor=default;strokeColor=#457B9D;fontSize=13;" parent="1" source="szXa-r8fhTdHl1jieYu6-11" target="szXa-r8fhTdHl1jieYu6-11" edge="1">
          <mxGeometry relative="1" as="geometry" />
        </mxCell>
        <mxCell id="G_rKBuncZeWBIIrRSJT7-18" value="Yes" style="text;html=1;align=center;verticalAlign=middle;resizable=0;points=[];autosize=1;strokeColor=none;fillColor=none;rounded=0;labelBackgroundColor=none;fontColor=#1D3557;fontSize=13;" parent="1" vertex="1">
          <mxGeometry x="390" y="895" width="40" height="30" as="geometry" />
        </mxCell>
        <mxCell id="G_rKBuncZeWBIIrRSJT7-19" value="End" style="ellipse;whiteSpace=wrap;html=1;rounded=0;labelBackgroundColor=none;fillColor=#e1d5e7;strokeColor=#9673a6;fontSize=13;" parent="1" vertex="1">
          <mxGeometry x="330" y="1035" width="120" height="40" as="geometry" />
        </mxCell>
        <mxCell id="G_rKBuncZeWBIIrRSJT7-22" value="No" style="text;html=1;align=center;verticalAlign=middle;resizable=0;points=[];autosize=1;strokeColor=none;fillColor=none;rounded=0;labelBackgroundColor=none;fontColor=#1D3557;fontSize=13;" parent="1" vertex="1">
          <mxGeometry x="255" y="825" width="40" height="30" as="geometry" />
        </mxCell>
      </root>
    </mxGraphModel>
  </diagram>
</mxfile>
